<svg xmlns="http://www.w3.org/2000/svg" xmlns:xlink="http://www.w3.org/1999/xlink" fill="none" height="200" width="200">
  <filter id="dropshadow" height="130%">
    <feGaussianBlur in="SourceAlpha" stdDeviation="3"/>
    <feOffset dx="2" dy="2" result="offsetblur"/>
    <feComponentTransfer>
      <feFuncA type="linear" slope="0.9"/>
    </feComponentTransfer>
    <feMerge> 
      <feMergeNode/> 
      <feMergeNode in="SourceGraphic"/>
    </feMerge>
  </filter>
  <path style="fill:#383838;filter:url(#dropshadow)"
        d="
           M 100, 100
           m -75, 0
           a 75,75 0 1,0 150,0
           a 75,75 0 1,0 -150,0
           "
  />
  <g transform="translate(31 40) scale(0.8)">
<path d="M111.516 42.9468C114.661 45.5863 117.348 48.5667 119.569 51.7883C107.467 46.0014 93.6575 45.4052 81.3152 49.7292L72.9175 52.6712L81.6186 54.5332C88.1752 55.9364 94.4951 58.9167 99.9954 63.532C111.152 72.8931 111.428 79.6515 109.583 83.1717C107.515 87.1167 102.081 88.9705 98.194 87.5844C95.4732 86.5291 91.6281 84.5999 88.8417 82.2619C86.116 79.9748 83.9062 77.3076 82.2209 74.405L77.6751 76.4137C80.5467 85.4998 85.9541 93.9041 93.7898 100.479C105.676 110.453 120.726 114.186 134.943 112.029L135.034 112.016L135.124 111.995C140.623 110.741 145.857 108.146 150.29 104.255C154.12 101.061 157.579 95.6072 159.943 90.0499C161.856 85.5507 163.203 80.6278 163.32 76.3913C168.103 76.3504 172.696 75.7316 175.534 74.4015L177.065 73.6842L176.969 71.9966C176.703 67.2961 173.169 63.5861 169.224 60.8094C168.726 56.8065 166.88 53.3481 164.009 50.9099L164.009 50.9097C160.946 48.309 156.836 46.964 152.178 47.3027C148.077 47.6008 144.921 48.6985 142.469 50.8691C140.881 49.0904 139.146 47.4044 137.267 45.8279C128.427 38.4099 117.768 34.5676 107.063 34.1519L105.684 38.7965C107.703 40.002 109.654 41.3846 111.516 42.9468Z" fill="#787878" stroke="#383838" stroke-width="5"/>
<circle cx="157.6" cy="61" r="3" fill="#383838"/>
<path d="M108.326 37.4297C107.791 37.1319 107.251 36.8405 106.706 36.5557C106.718 36.5622 106.725 36.5658 106.725 36.5652C106.727 36.5626 106.577 36.4584 106.263 36.1147C105.927 35.7472 105.523 35.2417 105.057 34.6067C104.228 33.48 103.311 32.1011 102.337 30.636C102.209 30.4431 102.08 30.2486 101.949 30.0531C100.857 28.412 99.6987 26.6924 98.6207 25.3125C98.0814 24.6222 97.5209 23.9631 96.961 23.42C96.4467 22.9213 95.7318 22.3182 94.8685 22.004L91.3379 20.7189L91.5163 24.4719L96.347 126.077L96.4714 128.694L99.08 128.447C108.903 127.516 118.385 124.578 126.945 119.906L127.025 119.862L127.103 119.812C133.659 115.58 139.233 109.729 143.152 102.574C146.58 96.6853 148.54 87.9383 149.009 79.4826C149.411 72.245 148.744 64.7854 146.668 59.1604C153.283 56.7701 159.295 53.6607 162.399 50.545L163.592 49.3475L162.925 47.7943C160.44 42.0065 154.138 38.8948 147.477 37.1594C145.008 32.0942 140.994 28.4339 136.131 26.6311L136.131 26.631C131.083 24.7603 125.259 24.9354 119.468 27.5329C113.929 30.0173 110.335 33.1258 108.326 37.4297ZM133.382 40.3101L133.384 40.3109C133.768 40.4436 134.104 40.7088 134.33 41.0732C134.557 41.4383 134.658 41.8794 134.609 42.323C134.58 42.5785 134.502 42.8247 134.381 43.0472C134.26 43.2698 134.099 43.4633 133.909 43.6181C133.719 43.7727 133.503 43.8856 133.276 43.9528C133.049 44.0199 132.814 44.0405 132.582 44.0144L132.581 44.0144C132.349 43.9884 132.124 43.9161 131.918 43.8004C131.711 43.6847 131.527 43.5269 131.375 43.3336C131.224 43.1405 131.11 42.9162 131.041 42.6723C130.972 42.4283 130.951 42.171 130.98 41.9157C131.009 41.6603 131.086 41.4141 131.207 41.1917C131.328 40.9691 131.489 40.7756 131.68 40.6208C131.87 40.4662 132.085 40.3533 132.312 40.2861C132.539 40.2191 132.774 40.1985 133.006 40.2244C133.134 40.2389 133.26 40.2676 133.382 40.3101Z" fill="#B2B2B2" stroke="#383838" stroke-width="5"/>
<path d="M96.3102 12.934L96.31 12.934C90.3992 12.8993 84.4445 15.2665 79.4259 20.1397C73.5617 25.8341 71.0789 31.3624 71.6235 38.0645C71.6759 38.7092 71.7558 39.3588 71.8612 40.0141L71.8928 40.2103L71.9549 40.399C76.3369 53.7087 77.3969 72.8338 75.2509 91.2552C73.0979 109.736 67.7864 126.92 59.9145 136.614L56.6046 140.69H61.8552C85.8138 140.69 107.319 130.17 121.997 113.507L122.058 113.437L122.113 113.364C127.331 106.478 130.915 98.2807 132.282 89.3523C133.616 81.9515 132.358 72.1226 129.644 63.1373C127.278 55.3043 123.677 47.6823 119.298 42.6374C125.398 37.5766 130.569 31.9827 132.629 27.543L133.341 26.0097L132.183 24.7783C127.449 19.7433 119.731 18.8959 112.082 19.6366C107.605 15.2685 102.045 12.9681 96.3102 12.934ZM98.6399 27.721L98.6423 27.7209C99.1591 27.7128 99.6743 27.884 100.1 28.2185C100.526 28.5535 100.835 29.0312 100.967 29.575C101.043 29.8886 101.057 30.2124 101.01 30.5271C100.963 30.8421 100.855 31.1409 100.696 31.407C100.537 31.6729 100.33 31.9009 100.088 32.0799C99.8457 32.2588 99.5724 32.3862 99.2834 32.4561L99.2829 32.4562C98.9939 32.5261 98.6926 32.5377 98.3956 32.4892C98.0988 32.4407 97.8101 32.3326 97.5469 32.1686C97.2837 32.0046 97.0518 31.788 96.8658 31.5294C96.6797 31.2707 96.5443 30.9763 96.4686 30.6631C96.3928 30.3497 96.3787 30.026 96.4259 29.7112C96.4732 29.3962 96.5806 29.0974 96.7397 28.8313C96.8987 28.5654 97.106 28.3375 97.3481 28.1584C97.5898 27.9798 97.8627 27.8525 98.1514 27.7825C98.3111 27.7441 98.4749 27.7234 98.6399 27.721Z" fill="#ECECEC" stroke="#383838" stroke-width="5"/>
<path d="M14.2898 43.707C18.1444 43.0305 22.0989 42.6789 26.1289 42.6789C38.1975 42.6789 49.5896 45.8319 59.6475 51.4224C34.265 53.1772 12.2803 68.7131 3.05176e-05 91.2294C9.8641 85.5401 21.1137 82.3179 33.0548 82.3179C80.0557 82.3179 72.1625 117.863 56.498 124.121C51.922 125.822 44.8675 127.675 38.5478 127.675C32.4941 127.675 26.688 126.522 21.3049 124.405C33.3294 132.73 47.6012 137.552 62.908 137.552C80.5 117.193 86.0668 59.1657 77 29.1934C76.9236 28.6759 76.3314 28.572 75.6722 28.4563C75.506 28.4272 75.3356 28.3973 75.1681 28.3598C70.2831 27.2672 65.2242 26.6934 60.0421 26.6934C42.8069 26.6934 26.934 33.0416 14.2898 43.707Z" fill="#ECECEC"/>
<path d="M14.2898 43.707C18.1444 43.0305 22.0989 42.6789 26.1289 42.6789C38.1975 42.6789 49.5896 45.8319 59.6475 51.4224C34.265 53.1772 12.2803 68.7131 3.05176e-05 91.2294C9.8641 85.5401 21.1137 82.3179 33.0548 82.3179C80.0557 82.3179 72.1625 117.863 56.498 124.121C51.922 125.822 44.8675 127.675 38.5478 127.675C32.4941 127.675 26.688 126.522 21.3049 124.405C33.3294 132.73 47.6012 137.552 62.908 137.552C80.5 117.193 86.0668 59.1657 77 29.1934C76.9236 28.6759 76.3314 28.572 75.6722 28.4563C75.506 28.4272 75.3356 28.3973 75.1681 28.3598C70.2831 27.2672 65.2242 26.6934 60.0421 26.6934C42.8069 26.6934 26.934 33.0416 14.2898 43.707Z"/>


  </g>

  
  <g clip-path="url(#clip0)">
    <g transform="translate(0 -760) scale(1)">
      <g clip-path="url(#spec-left)">
        <use height="100%" width="100%" xlink:href="#code-block" transform="translate(104)"/>
        <use height="100%" width="100%" xlink:href="#code-block" y="284" transform="translate(104)"/>
      </g>

    </g>
  </g>
  
  <defs id="defs48">
    <clipPath id="spec-left">
      <path d="
           M 100, 860
           m -75, 0
           a 75,75 0 1,0 150,0
           a 75,75 0 1,0 -150,0
           " fill="#333" id="path5554"/>
    </clipPath>

    <style type="text/css" id="style5503">
      svg { --dots: rgba(242,242,242,0.6); --frame: #000; --shine: rgba(242,242,242,0.65); --lens: rgba(242,242,242,0.95); } .code-block { -webkit-animation: read 1.5s infinite linear; animation: read 6s infinite linear; } .lens { fill: var(--lens); } .lens__shine { fill: var(--shine); } .shades-frame { fill: var(--frame); } @-webkit-keyframes read { to { -webkit-transform: translate(-1800px, 200px) scale(2); transform: translate(-1800px, 200px) scale(2); } } @keyframes read { to { -webkit-transform: translate(-1800px, 200px) scale(2); transform: translate(-1800px, 200px) scale(2); } }
    </style>
    <g transform="translate(100 200) scale(2)" class="code-block" id="code-block">
      <path d="M99.1802 0H136L60.9777 275H24.1578L99.1802 0Z" class="lens__shine"/>
	  <path d="M75.9774 0H88.932L13.9097 275H0.955078L75.9774 0Z" class="lens__shine"/>
    </g>
  </defs>
</svg>
