<svg xmlns="http://www.w3.org/2000/svg" xmlns:xlink="http://www.w3.org/1999/xlink" fill="none" height="200" width="400">
  <g clip-path="url(#clip0)">
    <text x="55" y="55" class="heavy">is</text>


    <g transform="translate(0 -1100) scale(1.34105)">

      <path style="fill:#000" class="lens" d="M85 860c-10 1-25 1-28 13-3 15-3 32 6 45 7 11 23 9 35 9 19-1 35-16 40-34 2-8 4-14 1-19-6-10-20-12-31-13z"/>
      <path style="fill:#000" class="lens" d="M215 860c10 1 24 1 28 13 3 15 3 32-6 45-7 11-23 9-35 9-19-1-35-16-40-34-2-8-4-14-1-19 6-10 20-12 31-13z"/>

      <g clip-path="url(#spec-left)">
        <use height="100%" width="100%" xlink:href="#code-block"/>
        <use height="100%" width="100%" xlink:href="#code-block" y="284"/>
      </g>
      <g clip-path="url(#spec-right)">
        <use height="100%" width="100%" xlink:href="#code-block" transform="translate(104)"/>
        <use height="100%" width="100%" xlink:href="#code-block" transform="translate(104)" y="284"/>
      </g>
      <path class="lens__shine" d="M101 861l-19 66h17l18-65zm-12-1h-4l-3 1-18 59 6 5z"/>
    </g>
  </g>
  
  <defs id="defs48">
    <clipPath id="clip0">
      <rect id="rect41" fill="#fff" height="500" width="1500"/>
    </clipPath>
    <clipPath id="clip1">
      <rect id="rect44" transform="translate(1261 188)" fill="#fff" height="50" width="50"/>
    </clipPath>
    <clipPath id="spec-left">
      <path d="M85 860c-10 1-25 1-28 13-3 15-3 32 6 45 7 11 23 9 35 9 19-1 35-16 40-34 2-8 4-14 1-19-6-10-20-12-31-13l-23-1z" fill="#333" id="path5554"/>
    </clipPath>
    <clipPath id="spec-right">
      <path d="M215 860c10 1 24 1 28 13 3 15 3 32-6 45-7 11-23 9-35 9-19-1-35-16-40-34-2-8-4-14-1-19 6-10 20-12 31-13l23-1z" fill="#333" id="path5557"/>
    </clipPath>
    <pattern height="1" width="1" patternContentUnits="objectBoundingBox" id="pattern0">
      <use id="use38" transform="scale(.005)" xlink:href="#image0"/>
    </pattern>
    <style type="text/css" id="style5503">
      svg { --dots: rgba(242,242,242,0.6); --frame: #000; --shine: rgba(242,242,242,0.35); --lens: rgba(242,242,242,0.95); --code-one: rgba(128,230,25,0.5); --code-two: rgba(229,230,25,0.5); --code-three: rgba(230,25,128,0.5); --code-four: rgba(25,195,230,0.5); } .code-block { -webkit-animation: read 1.5s infinite linear; animation: read 1.5s infinite linear; } .code-block rect { fill: var(--code-one); } .code-block rect:nth-of-type(5) { fill: var(--code-four); } .code-block rect:nth-of-type(8), .code-block rect:nth-of-type(9) { fill: var(--code-two); } .code-block rect:nth-of-type(12) { fill: var(--code-three); }  .lens { fill: var(--lens); } .lens__shine { fill: var(--shine); } .shades-dot { fill: var(--dots); } .shades-frame { fill: var(--frame); } @-webkit-keyframes read { to { -webkit-transform: translate(0, -283.5px); transform: translate(0, -283.5px); } } @keyframes read { to { -webkit-transform: translate(0, -283.5px); transform: translate(0, -283.5px); } }
    </style>
    <g class="code-block" id="code-block">
      <rect ry="0" y="862" x="60" height="7.5" width="74" id="rect5505"/>
      <rect ry="0" y="874" x="96" height="7.5" width="28" id="rect5507"/>
      <rect width="54" height="7.5" x="60" y="886" ry="0" id="rect5509"/>
      <rect ry="0" y="897" x="60" height="7.5" width="74" id="rect5511"/>
      <rect width="56" height="7.5" x="78" y="909" ry="0" id="rect5513"/>
      <rect ry="0" y="921" x="83" height="7.5" width="51" id="rect5515"/>
      <rect width="51" height="7.5" x="73" y="932" ry="0" id="rect5517"/>
      <rect ry="0" y="944" x="72" height="7.5" width="62" id="rect5519"/>
      <rect width="74" height="7.5" x="60" y="956" ry="0" id="rect5521"/>
      <rect ry="0" y="967" x="50" height="7.5" width="84" id="rect5523"/>
      <rect width="64" height="7.5" x="60" y="979" ry="0" id="rect5525"/>
      <rect ry="0" y="991" x="60" height="7.5" width="74" id="rect5527"/>
      <rect width="41" height="7.5" x="93" y="1003" ry="0" id="rect5529"/>
      <rect ry="0" y="1014" x="66" height="7.5" width="58" id="rect5531"/>
      <rect width="58" height="7.5" x="56" y="1026" ry="0" id="rect5533"/>
      <rect ry="0" y="1038" x="50" height="7.5" width="74" id="rect5535"/>
      <rect width="46" height="7.5" x="88" y="1049" ry="0" id="rect5537"/>
      <rect ry="0" y="1061" x="105" height="7.5" width="19" id="rect5539"/>
      <rect width="38" height="7.5" x="96" y="1073" ry="0" id="rect5541"/>
      <rect ry="0" y="1084" x="73" height="7.5" width="51" id="rect5543"/>
      <rect ry="0" y="1096" x="88" height="7.5" width="26" id="rect5545"/>
      <rect width="56" height="7.5" x="68" y="1108" ry="0" id="rect5547"/>
      <rect ry="0" y="1120" x="100" height="7.5" width="24" id="rect5549"/>
      <rect width="74" height="7.5" x="50" y="1131" ry="0" id="rect5551"/>
    </g>
  </defs>

</svg>
