<svg xmlns="http://www.w3.org/2000/svg" viewBox="0 0 421.01 388.17"><defs><style>.cls-1{fill:#fff;stroke:#fff;stroke-miterlimit:10;stroke-width:2px;}</style></defs><title>Asset 1</title><g id="Layer_2" data-name="Layer 2"><g id="Layer_3" data-name="Layer 3"><path class="cls-1" d="M211,1.14V34.33s9.7-3.06,15.83,1.54C216.11,40.46,210.49,40,239.09,47.1c23.48,12.77-12.77,8.68-13.28,12.25S261,67,266.66,82.33c0,0-55.66-14.8-28.09-.51,0,0,58.22,8.68,55.66,59.24.51,8.17,4.09-22-5.61-43.41-5.11-18.89-7.66-38.81-13.28-45.44s-19.23-25.88-23.15-30.3S234,9.31,228.36,7.27,218.66,2.16,211,1.14Z"/><path class="cls-1" d="M299.34,209.48s70,29.62,84.77,56.17S404,302.42,419.85,386.16c2,9.71-16.34-54.12-16.34-54.12S381,258,343.26,258c-23,11.75-24.52,3.58-24.52,3.58s1.54-16.85-13.27-18.9-9.19-11.23-9.19-11.23S303.43,220.72,299.34,209.48Z"/><path class="cls-1" d="M210,1.14V34.33s-9.7-3.06-15.83,1.54C204.9,40.46,210.52,40,181.92,47.1c-23.48,12.77,12.77,8.68,13.28,12.25S160,67,154.35,82.33c0,0,55.66-14.8,28.09-.51,0,0-58.22,8.68-55.66,59.24-.52,8.17-4.09-22,5.61-43.41,5.11-18.89,7.66-38.81,13.28-45.44s22-24,23.49-28.6S187,9.31,192.65,7.27,202.35,2.16,210,1.14Z"/><path class="cls-1" d="M121.67,209.48s-70,29.62-84.77,56.17S17,302.42,1.16,386.16C-.88,395.87,17.5,332,17.5,332S40,258,77.75,258c23,11.75,24.51,3.58,24.51,3.58s-1.53-16.85,13.28-18.9,9.19-11.23,9.19-11.23S117.58,220.72,121.67,209.48Z"/></g></g></svg>